<svg width="512" height="512" viewBox="0 0 512 512" fill="none" xmlns="http://www.w3.org/2000/svg">
<rect width="512" height="512" fill="url(#paint0_linear_165_3786)"/>
<path d="M255.597 110.935C255.702 111.01 255.807 111.088 255.91 111.167C255.959 111.204 256.007 111.243 256.055 111.281C256.102 111.319 256.15 111.356 256.197 111.395C256.247 111.435 256.296 111.476 256.346 111.518C256.402 111.564 256.457 111.611 256.513 111.658C256.572 111.709 256.631 111.761 256.689 111.812C256.712 111.833 256.735 111.853 256.758 111.873C256.883 111.984 257.005 112.096 257.128 112.209C257.214 112.288 257.301 112.367 257.387 112.447C257.611 112.657 257.833 112.867 258.054 113.075C258.616 113.605 259.176 114.137 259.734 114.672C259.924 114.853 260.111 115.036 260.3 115.218C260.68 115.583 261.059 115.949 261.438 116.316C261.607 116.481 261.775 116.646 261.943 116.811C262.331 117.189 262.72 117.568 263.106 117.948C263.37 118.208 263.633 118.469 263.896 118.729C264.156 118.988 264.417 119.245 264.677 119.504C264.966 119.792 265.255 120.081 265.543 120.37C265.842 120.67 266.141 120.97 266.439 121.271C266.635 121.468 266.83 121.666 267.025 121.863C267.369 122.212 267.714 122.56 268.057 122.909C268.31 123.167 268.563 123.426 268.815 123.685C269.083 123.958 269.35 124.232 269.617 124.507C269.904 124.801 270.19 125.096 270.476 125.391C270.752 125.676 271.029 125.962 271.305 126.248C271.53 126.482 271.755 126.716 271.98 126.95C272.764 127.765 273.546 128.582 274.326 129.4C274.972 130.078 275.616 130.759 276.26 131.438C276.743 131.949 277.227 132.459 277.709 132.971C278.169 133.458 278.628 133.947 279.087 134.435C280.529 135.968 281.969 137.5 283.405 139.032C283.861 139.519 284.318 140.006 284.773 140.492C285.054 140.792 285.335 141.092 285.616 141.392C293.184 149.462 300.818 157.602 307.898 166.093C332.271 195.32 360.692 237.545 361.651 276.634C362.309 303.441 351.664 331.375 333.027 350.799C312.818 371.581 285.159 383.517 256.128 383.982C255.756 383.992 255.384 383.998 255.012 383.999C227.88 384.156 201.799 373.545 182.525 354.508C177.798 349.787 173.273 344.866 169.344 339.458C156.797 321.989 150.094 301.021 150.188 279.536C150.213 273.56 151.116 267.665 152.184 261.8C153.837 252.718 156.219 244.031 159.626 235.432C177.878 189.369 220.558 145.406 255.597 110.935ZM323.305 279.162C303.428 290.704 281.708 301.824 268.907 321.761C265.868 326.493 263.483 331.302 262.053 336.756C260.046 344.414 259.381 352.142 259.676 360.037C284.275 346.154 302.68 328.767 314.894 302.992C318.003 296.521 320.566 289.8 322.553 282.901C322.851 281.831 323.479 280.257 323.305 279.162ZM188.533 279.259C189.974 286.532 192.607 293.701 195.64 300.453C205.417 322.221 220.507 339.354 240.288 352.587C243.77 354.916 247.656 357.87 251.5 359.525C251.967 339.813 248.27 325.674 234.32 311.073C223.864 300.129 212.391 293.072 199.482 285.471C196.004 283.422 192.252 280.794 188.533 279.259ZM194.113 226.658C196.701 248.191 206.093 267.192 220.794 283.078C227.566 290.397 235.115 297.015 242.152 304.077C245.415 307.351 248.419 310.85 251.559 314.238L251.541 297.971C251.531 293.124 251.86 287.858 250.712 283.128C248.677 274.743 241.722 265.851 235.706 259.875C225.817 250.051 214.401 242.299 203.43 233.819C201.098 232.017 196.402 227.616 194.113 226.658ZM316.632 226.822C312.19 230.542 307.639 234.129 302.985 237.58C287.81 248.938 262.02 266.742 260.101 287.025C259.837 289.815 259.414 311.77 259.812 313.696L260.039 313.785C277.203 294.861 295.524 282.295 307.324 258.661C310.073 253.156 312.452 247.372 314.051 241.423C314.977 237.974 316.937 231.088 316.872 227.716C316.865 227.354 316.885 227.079 316.632 226.822ZM255.358 158.357C252.136 162.228 249.452 166.553 246.818 170.836C238.391 184.547 231.729 199.292 233.214 215.793C234.333 228.231 239.551 239.028 245.283 249.895C248.28 255.576 251.394 261.199 254.948 266.557C253.793 260.65 254.945 246.914 255.45 240.453L255.577 240.318C256.401 244.586 257.105 261.378 256.416 265.985C268.391 244.734 282.716 221.77 275.584 196.252C272.57 185.47 266.944 175.742 260.999 166.352C259.317 163.695 257.573 160.597 255.358 158.357Z" fill="white"/>
<defs>
<linearGradient id="paint0_linear_165_3786" x1="-5.77545e-06" y1="512" x2="512" y2="-5.77545e-06" gradientUnits="userSpaceOnUse">
<stop stop-color="#7FD072"/>
<stop offset="0.485577" stop-color="#F5AE44"/>
<stop offset="1" stop-color="#F07368"/>
</linearGradient>
</defs>
</svg>
