<svg preserveAspectRatio="none" width="100%" height="100%" overflow="visible" style="display: block;" viewBox="0 0 54.7101 26.6019" fill="none" xmlns="http://www.w3.org/2000/svg">
<g id="Group 15">
<path id="Vector 7" d="M1 25.6019C1 25.1244 1.22715 23.5667 2.42956 21.3017C3.81835 18.6857 7.09155 16.1636 11.3529 13.1491C12.5226 12.3217 14.2179 11.6798 16.792 10.5301C19.7283 9.21861 23.5025 8.40244 26.9479 7.61708C29.1085 7.1246 32.6984 7.08306 37.1223 7.10947C40.6011 7.13024 44.9202 8.73246 49.3984 10.8405C51.0452 11.8089 52.0085 12.4449 52.5679 12.87C52.8713 13.111 53.2143 13.4032 53.71 13.8035" stroke="var(--stroke-0, #F59E0B)" stroke-width="2" stroke-linecap="round"/>
<path id="Vector 8" d="M53.3074 13.6805C53.1662 13.3418 52.4237 11.9816 51.6309 10.3082C50.6288 7.06834 50.3045 5.14603 50.2618 4.15464C50.2415 3.51305 50.2242 2.59025 50.4883 1.00016" stroke="var(--stroke-0, #F59E0B)" stroke-width="2" stroke-linecap="round"/>
<path id="Vector 9" d="M52.9095 13.942C50.3324 13.942 44.288 14.1384 41.9467 15.0533C41.438 15.2984 41.1304 15.4956 40.6021 15.7833C40.0737 16.071 39.3339 16.4433 38.2358 17.1017" stroke="var(--stroke-0, #F59E0B)" stroke-width="2" stroke-linecap="round"/>
</g>
</svg>
