<svg preserveAspectRatio="none" width="100%" height="100%" overflow="visible" style="display: block;" viewBox="0 0 32 32" fill="none" xmlns="http://www.w3.org/2000/svg">
<path id="Subtract" d="M20.0928 0C25.7058 0 28.5121 0.000404259 30.2559 1.74414C31.9996 3.48788 32 6.29422 32 11.9072V20.0928C32 25.7058 31.9996 28.5121 30.2559 30.2559C28.5121 31.9996 25.7058 32 20.0928 32H11.9072C6.29422 32 3.48788 31.9996 1.74414 30.2559C0.000404259 28.5121 0 25.7058 0 20.0928V11.9072C0 6.29422 0.000404259 3.48788 1.74414 1.74414C3.48788 0.000404259 6.29422 0 11.9072 0H20.0928ZM16.0098 7.15332C13.7541 9.37244 11.0062 12.2027 9.83105 15.168C9.61172 15.7216 9.45895 16.2816 9.35254 16.8662C9.28386 17.2437 9.22522 17.6232 9.22363 18.0078C9.21755 19.3909 9.64942 20.7407 10.457 21.8652C10.7099 22.2133 11.0014 22.5301 11.3057 22.834C12.5465 24.0595 14.226 24.7435 15.9727 24.7334C15.9964 24.7333 16.0202 24.7321 16.0439 24.7314C17.9129 24.7015 19.694 23.9336 20.9951 22.5957C22.1947 21.3453 22.8801 19.5469 22.8379 17.8213C22.7761 15.3049 20.946 12.5857 19.377 10.7041C18.9212 10.1576 18.4295 9.63368 17.9424 9.11426C17.9245 9.09514 17.9066 9.07575 17.8887 9.05664C17.8594 9.02538 17.8291 8.9932 17.7998 8.96191C17.7265 8.88375 17.6516 8.80674 17.5781 8.72852C17.2593 8.38918 16.9391 8.04877 16.6094 7.71973L16.5869 7.69727C16.4489 7.55994 16.3092 7.42417 16.168 7.29102C16.1632 7.28656 16.1581 7.28183 16.1533 7.27734C16.1077 7.23417 16.0606 7.18972 16.0098 7.15332ZM20.3691 17.9834C20.3803 18.0538 20.3395 18.1557 20.3203 18.2246C20.1924 18.6686 20.0273 19.1011 19.8271 19.5176C19.0409 21.1768 17.856 22.2966 16.2725 23.1904C16.2535 22.6822 16.2966 22.1844 16.4258 21.6914C16.5178 21.3406 16.6708 21.031 16.8662 20.7266C17.6903 19.4431 19.0896 18.7264 20.3691 17.9834ZM11.6924 17.9902C11.9318 18.089 12.1735 18.2587 12.3975 18.3906C13.2284 18.8799 13.9675 19.3336 14.6406 20.0381C15.5387 20.978 15.7762 21.8892 15.7461 23.1582C15.4986 23.0516 15.2486 22.8609 15.0244 22.7109C13.751 21.8591 12.7798 20.7558 12.1504 19.3545C11.9552 18.9198 11.7852 18.4584 11.6924 17.9902ZM12.0508 14.6045C12.1981 14.6661 12.5002 14.9493 12.6504 15.0654C13.3566 15.6112 14.092 16.1099 14.7285 16.7422C15.1157 17.1269 15.5642 17.6996 15.6953 18.2393C15.7692 18.5437 15.7474 18.8834 15.748 19.1953L15.749 20.2422C15.547 20.0242 15.3535 19.7986 15.1436 19.5879C14.6906 19.1334 14.2044 18.7074 13.7686 18.2363C12.8223 17.2137 12.2174 15.9905 12.0508 14.6045ZM19.9395 14.6143C19.9556 14.6307 19.9547 14.6488 19.9551 14.6719C19.9592 14.8889 19.8331 15.3326 19.7734 15.5547C19.6706 15.9375 19.5176 16.3098 19.3408 16.6641C18.5812 18.1855 17.4009 18.9946 16.2959 20.2129L16.2812 20.207C16.2559 20.0793 16.2829 18.6696 16.2998 18.4902C16.4236 17.1845 18.0846 16.0378 19.0615 15.3066C19.3609 15.0846 19.6537 14.8536 19.9395 14.6143ZM15.9951 10.207C16.1377 10.3512 16.2501 10.5507 16.3584 10.7217C16.7411 11.3261 17.1028 11.9526 17.2969 12.6465C17.756 14.2891 16.8344 15.7678 16.0635 17.1357C16.1077 16.8384 16.0618 15.758 16.0088 15.4834L16.001 15.4922C15.9685 15.9081 15.8944 16.7925 15.9688 17.1729C15.7401 16.8281 15.5395 16.4662 15.3467 16.1006C14.9777 15.401 14.6414 14.705 14.5693 13.9043C14.474 12.8423 14.9029 11.8932 15.4453 11.0107C15.6148 10.735 15.7877 10.4562 15.9951 10.207Z" fill="url(#paint0_linear_0_104)"/>
<defs>
<linearGradient id="paint0_linear_0_104" x1="-10.75" y1="46.5" x2="32" y2="-2.02283e-06" gradientUnits="userSpaceOnUse">
<stop stop-color="#7FD072"/>
<stop offset="0.585505" stop-color="#F5AE44"/>
<stop offset="1" stop-color="#F07368"/>
</linearGradient>
</defs>
</svg>
