<svg width="109" height="80" viewBox="0 0 109 80" fill="none" xmlns="http://www.w3.org/2000/svg">
<path opacity="0.7" d="M71.1518 6.89749C70.8218 6.89749 70.5834 6.84318 70.4367 6.73455C70.3266 6.58973 70.2716 6.42679 70.2716 6.24576C70.2716 6.06472 70.345 5.91989 70.4917 5.81127C70.6384 5.70265 70.8401 5.64834 71.0968 5.64834L77.9183 5.59403C83.3828 5.55782 87.5821 5.21385 90.516 4.56212C93.4867 3.91039 95.7788 2.62503 97.3925 0.706044C97.5759 0.488799 97.7409 0.325864 97.8876 0.217241C98.0343 0.0724139 98.2177 0 98.4378 0C98.9145 0 99.1529 0.307763 99.1529 0.923285V72.5594C99.1529 73.7905 99.4463 74.7499 100.033 75.4379C100.62 76.0896 101.408 76.5241 102.399 76.7413L108.23 77.8276C108.743 77.9362 109 78.1172 109 78.3707C109 78.5155 108.927 78.6422 108.78 78.7508C108.67 78.8595 108.468 78.9138 108.175 78.9138H70.3817C70.0883 78.9138 69.8682 78.8595 69.7215 78.7508C69.5748 78.6422 69.5015 78.4974 69.5015 78.3164C69.5015 78.0629 69.8132 77.8638 70.4367 77.7189L75.8829 76.7413C77.0198 76.5241 77.9366 76.1077 78.6335 75.4922C79.3303 74.8405 79.6787 73.8629 79.6787 72.5594V9.23286C79.6787 8.4363 79.5136 7.87509 79.1836 7.54922C78.8535 7.18715 78.3951 7.00611 77.8083 7.00611L71.1518 6.89749Z" fill="#FAFAF9"/>
<path opacity="0.7" d="M31.9619 1.84656C38.8201 1.84656 44.688 3.36726 49.5658 6.40867C54.4435 9.45009 58.1843 13.8855 60.7882 19.7149C63.3921 25.5442 64.694 32.6409 64.694 41.0047C64.694 49.441 63.3371 56.5558 60.6232 62.3489C57.9092 68.1421 54.0951 72.5413 49.1807 75.5465C44.303 78.5155 38.545 80 31.9069 80C25.0854 80 19.2909 78.4431 14.5232 75.3293C9.79213 72.2154 6.17968 67.6714 3.6858 61.6972C1.2286 55.723 0 48.4815 0 39.9728C0 32.1883 1.30195 25.4537 3.90585 19.7692C6.54642 14.0484 10.2506 9.63112 15.0183 6.5173C19.8226 3.40347 25.4705 1.84656 31.9619 1.84656ZM44.5597 45.241C44.5597 35.2116 44.1012 27.1011 43.1844 20.9097C42.3042 14.682 40.8922 10.138 38.9485 7.27765C37.0414 4.38107 34.5658 2.93277 31.5218 2.93277C28.8813 2.93277 26.7175 4.01899 25.0304 6.19143C23.3434 8.36387 22.0965 11.9122 21.2896 16.8364C20.4828 21.7244 20.0794 28.2779 20.0794 36.4969C20.0794 46.4539 20.5195 54.5644 21.3997 60.8282C22.3165 67.0559 23.7285 71.6361 25.6356 74.5689C27.5793 77.4655 30.0915 78.9138 33.1722 78.9138C35.6661 78.9138 37.7565 77.9 39.4436 75.8724C41.1306 73.8085 42.3959 70.3326 43.2394 65.4447C44.1196 60.5205 44.5597 53.7859 44.5597 45.241Z" fill="#FAFAF9"/>
</svg>
