<svg width="127" height="80" viewBox="0 0 127 80" fill="none" xmlns="http://www.w3.org/2000/svg">
<path opacity="0.7" d="M90.9367 37.3999L90.5517 36.7399C90.7717 36.7399 91.1384 36.7399 91.6517 36.7399C92.1651 36.7399 92.6601 36.7399 93.1367 36.7399C93.6501 36.7399 93.9984 36.7399 94.1817 36.7399C100.305 36.7399 105.603 37.4366 110.077 38.8299C114.587 40.1866 118.07 42.2949 120.527 45.1549C122.983 47.9783 124.212 51.6083 124.212 56.0449C124.212 60.7383 123.02 64.8266 120.637 68.3099C118.253 71.7566 114.917 74.4333 110.627 76.3399C106.373 78.2099 101.405 79.1449 95.7217 79.1449C90.1851 79.1449 85.4917 78.3933 81.6417 76.8899C77.7917 75.3499 74.8401 73.2966 72.7867 70.7299C70.7701 68.1266 69.7617 65.2116 69.7617 61.9849C69.7617 58.9416 70.6051 56.4299 72.2917 54.4499C74.0151 52.4333 76.1051 51.4249 78.5617 51.4249C80.6884 51.4249 82.4851 52.2133 83.9517 53.7899C85.4551 55.3666 86.2067 57.4199 86.2067 59.9499V67.4299C86.2067 70.5099 87.0684 73.0949 88.7917 75.1849C90.5151 77.2749 92.8801 78.3016 95.8867 78.2649C98.0501 78.2649 99.9017 77.6783 101.442 76.5049C103.018 75.2949 104.228 73.2966 105.072 70.5099C105.952 67.6866 106.392 63.8733 106.392 59.0699C106.392 52.1033 105.2 46.8966 102.817 43.4499C100.47 39.9666 97.3717 38.2249 93.5217 38.2249H90.4967C90.2034 38.2249 89.965 38.1699 89.7817 38.0599C89.635 37.9133 89.5617 37.7299 89.5617 37.5099C89.5617 37.3266 89.635 37.1616 89.7817 37.0149C89.965 36.8316 90.2034 36.5933 90.4967 36.2999L111.012 15.3999V16.1149H79.6617C79.0017 16.1149 78.4517 16.2983 78.0117 16.6649C77.5717 16.9949 77.2234 17.5083 76.9667 18.2049L74.5467 26.1799C74.5101 26.3266 74.4367 26.4549 74.3267 26.5649C74.2167 26.6383 74.0701 26.6749 73.8867 26.6749C73.6667 26.6749 73.5017 26.6016 73.3917 26.4549C73.3184 26.2716 73.3001 26.1066 73.3367 25.9599L76.0867 3.07993C76.1601 2.45659 76.3434 1.96159 76.6367 1.59492C76.9301 1.22825 77.3334 1.04492 77.8467 1.04492H125.422C125.678 1.04492 125.88 1.11826 126.027 1.26493C126.21 1.37493 126.302 1.55826 126.302 1.81493C126.302 1.96159 126.247 2.14492 126.137 2.36492C126.027 2.54826 125.825 2.78659 125.532 3.07993L90.9367 37.3999Z" fill="#FAFAF9"/>
<path opacity="0.7" d="M31.955 0C38.8117 0 44.6783 1.54 49.555 4.62C54.4317 7.7 58.1717 12.1917 60.775 18.095C63.3783 23.9983 64.68 31.185 64.68 39.655C64.68 48.1983 63.3233 55.4033 60.61 61.27C57.8967 67.1367 54.0833 71.5917 49.17 74.635C44.2933 77.6417 38.5367 79.145 31.9 79.145C25.08 79.145 19.2867 77.5683 14.52 74.415C9.79 71.2617 6.17833 66.66 3.685 60.61C1.22833 54.56 0 47.2267 0 38.61C0 30.7267 1.30167 23.9067 3.905 18.15C6.545 12.3567 10.2483 7.88333 15.015 4.73C19.8183 1.57667 25.465 0 31.955 0ZM44.55 43.945C44.55 33.7883 44.0917 25.575 43.175 19.305C42.295 12.9983 40.8833 8.39667 38.94 5.5C37.0333 2.56667 34.5583 1.1 31.515 1.1C28.875 1.1 26.7117 2.2 25.025 4.4C23.3383 6.6 22.0917 10.1933 21.285 15.18C20.4783 20.13 20.075 26.7667 20.075 35.09C20.075 45.1733 20.515 53.3867 21.395 59.73C22.3117 66.0367 23.7233 70.675 25.63 73.645C27.5733 76.5783 30.085 78.045 33.165 78.045C35.6583 78.045 37.7483 77.0183 39.435 74.965C41.1217 72.875 42.3867 69.355 43.23 64.405C44.11 59.4183 44.55 52.5983 44.55 43.945Z" fill="#FAFAF9"/>
</svg>
