<svg width="129" height="80" viewBox="0 0 129 80" fill="none" xmlns="http://www.w3.org/2000/svg">
<path opacity="0.7" d="M77.9564 59.345L77.5714 58.74L87.3615 53.185C91.3581 50.9117 94.7498 48.2167 97.5364 45.1C100.323 41.9833 102.45 38.39 103.916 34.32C105.383 30.25 106.116 25.6667 106.116 20.57C106.116 15.6933 105.713 11.825 104.906 8.965C104.1 6.105 103.018 4.05167 101.661 2.805C100.305 1.52167 98.8015 0.880001 97.1515 0.880001C94.3648 0.880001 92.2381 1.79667 90.7714 3.63C89.3048 5.46334 88.5714 8.14 88.5714 11.66V19.855C88.5714 22.935 87.7281 25.3733 86.0415 27.17C84.3548 28.9667 82.3198 29.865 79.9364 29.865C77.2964 29.865 75.2248 29.1317 73.7214 27.665C72.2181 26.1617 71.4664 24.035 71.4664 21.285C71.4664 17.7283 72.5481 14.3183 74.7114 11.055C76.9114 7.79167 80.2114 5.13333 84.6115 3.08C89.0114 1.02667 94.5298 0 101.166 0C106.52 0 111.048 0.843334 114.751 2.53C118.491 4.18 121.315 6.49 123.221 9.46C125.165 12.3933 126.136 15.785 126.136 19.635C126.136 23.485 125.128 27.0967 123.111 30.47C121.095 33.8067 117.905 37.07 113.541 40.26C109.215 43.45 103.568 46.8233 96.6014 50.38L77.9564 59.345ZM69.9814 71.06C69.9814 66.4767 71.7231 62.8467 75.2064 60.17C78.6898 57.4933 83.8048 56.155 90.5514 56.155C92.8614 56.155 95.2081 56.43 97.5915 56.98C99.9748 57.4933 102.321 58.08 104.631 58.74C106.941 59.4 109.178 60.005 111.341 60.555C113.541 61.0683 115.595 61.325 117.501 61.325C120.435 61.325 122.671 60.7383 124.211 59.565C125.751 58.355 127.016 56.3017 128.006 53.405C128.08 53.2217 128.153 53.0933 128.226 53.02C128.336 52.91 128.428 52.8733 128.501 52.91C128.648 52.9467 128.74 53.02 128.776 53.13C128.813 53.2033 128.831 53.35 128.831 53.57C128.281 60.17 127.2 65.3217 125.586 69.025C124.01 72.7283 121.956 75.35 119.426 76.89C116.933 78.3933 114.055 79.145 110.791 79.145C107.968 79.145 105.511 78.65 103.421 77.66C101.368 76.6333 99.4431 74.8367 97.6464 72.27C95.8864 69.6667 94.0164 66 92.0364 61.27C91.1198 59.62 90.3864 58.52 89.8364 57.97C89.3231 57.42 88.8098 57.145 88.2964 57.145C87.6364 57.145 87.0864 57.64 86.6464 58.63C86.2431 59.5833 85.9681 61.435 85.8214 64.185C85.5648 68.145 85.0148 71.2067 84.1714 73.37C83.3648 75.5333 82.2831 77.0367 80.9264 77.88C79.6064 78.6867 78.0665 79.09 76.3064 79.09C74.3631 79.09 72.8231 78.3383 71.6864 76.835C70.5498 75.3317 69.9814 73.4067 69.9814 71.06Z" fill="#FAFAF9"/>
<path opacity="0.7" d="M31.955 0.0549316C38.8117 0.0549316 44.6783 1.59493 49.555 4.67493C54.4317 7.75493 58.1717 12.2466 60.775 18.1499C63.3783 24.0533 64.68 31.2399 64.68 39.7099C64.68 48.2533 63.3233 55.4583 60.61 61.3249C57.8967 67.1916 54.0833 71.6466 49.17 74.6899C44.2933 77.6966 38.5367 79.1999 31.9 79.1999C25.08 79.1999 19.2867 77.6233 14.52 74.4699C9.79 71.3166 6.17833 66.7149 3.685 60.6649C1.22833 54.6149 0 47.2816 0 38.6649C0 30.7816 1.30167 23.9616 3.905 18.2049C6.545 12.4116 10.2483 7.93826 15.015 4.78493C19.8183 1.6316 25.465 0.0549316 31.955 0.0549316ZM44.55 43.9999C44.55 33.8433 44.0917 25.6299 43.175 19.3599C42.295 13.0533 40.8833 8.4516 38.94 5.55493C37.0333 2.6216 34.5583 1.15493 31.515 1.15493C28.875 1.15493 26.7117 2.25493 25.025 4.45493C23.3383 6.65493 22.0917 10.2483 21.285 15.2349C20.4783 20.1849 20.075 26.8216 20.075 35.1449C20.075 45.2283 20.515 53.4416 21.395 59.7849C22.3117 66.0916 23.7233 70.7299 25.63 73.6999C27.5733 76.6333 30.085 78.0999 33.165 78.0999C35.6583 78.0999 37.7483 77.0733 39.435 75.0199C41.1217 72.9299 42.3867 69.4099 43.23 64.4599C44.11 59.4733 44.55 52.6533 44.55 43.9999Z" fill="#FAFAF9"/>
</svg>
