<svg xmlns="http://www.w3.org/2000/svg" width="84" height="54.23" viewBox="0 0 84 54.23">
  <!-- Бесшовный тайл паттерна листьев для cover профиля.
       Кирпичная раскладка: лист в (0,0) и (42, 27.115) + обёрнутая копия
       сверху для бесшовности. Альфа листа зашита в fill (0.2),
       blend soft-light задаётся в CSS на фоне-подложке. -->
  <g fill="rgba(255,255,255,0.2)">
    <path d="M12.0919 0.105469C12.0936 0.106955 12.0951 0.108847 12.0968 0.110352C12.1202 0.131147 12.1433 0.152495 12.1661 0.173828C12.1823 0.188948 12.199 0.203658 12.215 0.21875C12.2233 0.226678 12.232 0.23529 12.2403 0.243164C12.4757 0.465079 12.7084 0.691378 12.9386 0.919922C12.9581 0.93934 12.9777 0.959057 12.9972 0.978516C13.0765 1.05758 13.1547 1.1381 13.2335 1.21777C13.4063 1.39243 13.5794 1.5672 13.7501 1.74414C13.7884 1.78387 13.8261 1.82444 13.8644 1.86426C14.2857 2.30306 14.7028 2.74621 15.1173 3.18848C15.169 3.24361 15.2209 3.29942 15.2726 3.35449C15.3044 3.38846 15.3364 3.42304 15.3683 3.45703C16.227 4.37275 17.0942 5.29634 17.8976 6.25977C20.6632 9.57629 23.8881 14.3682 23.9972 18.8037C24.0718 21.8457 22.8638 25.0165 20.7491 27.2207C18.4559 29.579 15.3169 30.9334 12.0226 30.9863C11.9804 30.9874 11.9378 30.9882 11.8956 30.9883C8.81685 31.0061 5.85718 29.8018 3.67003 27.6416C3.13363 27.1059 2.61979 26.5472 2.17394 25.9336C0.750332 23.9514 -0.0105363 21.5717 0.000110223 19.1338C0.00289729 18.4558 0.105625 17.7865 0.226673 17.1211C0.41425 16.0906 0.68478 15.1038 1.0714 14.1279C3.14278 8.901 7.98607 3.91166 11.962 0L12.0919 0.105469ZM19.6456 19.0918C17.3901 20.4016 14.9244 21.6633 13.4718 23.9258C13.127 24.4627 12.8567 25.0082 12.6944 25.627C12.4667 26.496 12.3914 27.3735 12.4249 28.2695C15.2163 26.694 17.3045 24.7207 18.6905 21.7959C19.0435 21.0615 19.3342 20.2985 19.5597 19.5156C19.5935 19.3942 19.6652 19.2159 19.6456 19.0918ZM4.35167 19.1035C4.51522 19.9286 4.81425 20.7418 5.15831 21.5078C6.26779 23.9781 7.97996 25.9232 10.2247 27.4248C10.6198 27.6891 11.0609 28.0241 11.4972 28.2119C11.5502 25.9751 11.1306 24.3706 9.54796 22.7139C8.3614 21.4719 7.05877 20.6702 5.59386 19.8076C5.19929 19.5752 4.77342 19.2776 4.35167 19.1035ZM4.98449 13.1338C5.27815 15.5774 6.3436 17.7343 8.01183 19.5371C8.78028 20.3676 9.63706 21.1185 10.4357 21.9199C10.8059 22.2915 11.1467 22.6888 11.503 23.0732L11.5011 21.2266C11.4999 20.6768 11.5375 20.0796 11.4073 19.543C11.1764 18.5915 10.3869 17.5815 9.70421 16.9033C8.58205 15.7886 7.28605 14.9095 6.04113 13.9473C5.77656 13.7428 5.24424 13.2425 4.98449 13.1338ZM18.8888 13.1523C18.3847 13.5744 17.868 13.9824 17.34 14.374C15.6179 15.6629 12.6918 17.6829 12.4737 19.9844C12.4438 20.301 12.3954 22.7931 12.4405 23.0117L12.4669 23.0215C14.4146 20.874 16.4931 19.4476 17.8321 16.7656C18.144 16.1409 18.4144 15.4847 18.5958 14.8096C18.701 14.4182 18.9235 13.6365 18.9161 13.2539C18.9154 13.213 18.9174 13.1814 18.8888 13.1523ZM11.9357 5.38379C11.57 5.82299 11.2648 6.31373 10.9659 6.7998C10.0096 8.35563 9.25352 10.029 9.42199 11.9014C9.549 13.3128 10.1417 14.5384 10.7921 15.7715C11.1321 16.4161 11.4855 17.0542 11.8888 17.6621C11.7577 16.9919 11.8881 15.4336 11.9454 14.7002L11.9601 14.6846C12.0535 15.1689 12.1338 17.0731 12.0558 17.5967C13.4147 15.1853 15.0399 12.5792 14.2306 9.68359C13.8886 8.46022 13.2499 7.3565 12.5753 6.29102C12.3845 5.98969 12.1869 5.63789 11.9357 5.38379Z"/>
    <use href="#leaf" x="42" y="27.115"/>
    <use href="#leaf" x="42" y="-27.115"/>
  </g>
  <defs>
    <path id="leaf" d="M12.0919 0.105469C12.0936 0.106955 12.0951 0.108847 12.0968 0.110352C12.1202 0.131147 12.1433 0.152495 12.1661 0.173828C12.1823 0.188948 12.199 0.203658 12.215 0.21875C12.2233 0.226678 12.232 0.23529 12.2403 0.243164C12.4757 0.465079 12.7084 0.691378 12.9386 0.919922C12.9581 0.93934 12.9777 0.959057 12.9972 0.978516C13.0765 1.05758 13.1547 1.1381 13.2335 1.21777C13.4063 1.39243 13.5794 1.5672 13.7501 1.74414C13.7884 1.78387 13.8261 1.82444 13.8644 1.86426C14.2857 2.30306 14.7028 2.74621 15.1173 3.18848C15.169 3.24361 15.2209 3.29942 15.2726 3.35449C15.3044 3.38846 15.3364 3.42304 15.3683 3.45703C16.227 4.37275 17.0942 5.29634 17.8976 6.25977C20.6632 9.57629 23.8881 14.3682 23.9972 18.8037C24.0718 21.8457 22.8638 25.0165 20.7491 27.2207C18.4559 29.579 15.3169 30.9334 12.0226 30.9863C11.9804 30.9874 11.9378 30.9882 11.8956 30.9883C8.81685 31.0061 5.85718 29.8018 3.67003 27.6416C3.13363 27.1059 2.61979 26.5472 2.17394 25.9336C0.750332 23.9514 -0.0105363 21.5717 0.000110223 19.1338C0.00289729 18.4558 0.105625 17.7865 0.226673 17.1211C0.41425 16.0906 0.68478 15.1038 1.0714 14.1279C3.14278 8.901 7.98607 3.91166 11.962 0L12.0919 0.105469ZM19.6456 19.0918C17.3901 20.4016 14.9244 21.6633 13.4718 23.9258C13.127 24.4627 12.8567 25.0082 12.6944 25.627C12.4667 26.496 12.3914 27.3735 12.4249 28.2695C15.2163 26.694 17.3045 24.7207 18.6905 21.7959C19.0435 21.0615 19.3342 20.2985 19.5597 19.5156C19.5935 19.3942 19.6652 19.2159 19.6456 19.0918ZM4.35167 19.1035C4.51522 19.9286 4.81425 20.7418 5.15831 21.5078C6.26779 23.9781 7.97996 25.9232 10.2247 27.4248C10.6198 27.6891 11.0609 28.0241 11.4972 28.2119C11.5502 25.9751 11.1306 24.3706 9.54796 22.7139C8.3614 21.4719 7.05877 20.6702 5.59386 19.8076C5.19929 19.5752 4.77342 19.2776 4.35167 19.1035ZM4.98449 13.1338C5.27815 15.5774 6.3436 17.7343 8.01183 19.5371C8.78028 20.3676 9.63706 21.1185 10.4357 21.9199C10.8059 22.2915 11.1467 22.6888 11.503 23.0732L11.5011 21.2266C11.4999 20.6768 11.5375 20.0796 11.4073 19.543C11.1764 18.5915 10.3869 17.5815 9.70421 16.9033C8.58205 15.7886 7.28605 14.9095 6.04113 13.9473C5.77656 13.7428 5.24424 13.2425 4.98449 13.1338ZM18.8888 13.1523C18.3847 13.5744 17.868 13.9824 17.34 14.374C15.6179 15.6629 12.6918 17.6829 12.4737 19.9844C12.4438 20.301 12.3954 22.7931 12.4405 23.0117L12.4669 23.0215C14.4146 20.874 16.4931 19.4476 17.8321 16.7656C18.144 16.1409 18.4144 15.4847 18.5958 14.8096C18.701 14.4182 18.9235 13.6365 18.9161 13.2539C18.9154 13.213 18.9174 13.1814 18.8888 13.1523ZM11.9357 5.38379C11.57 5.82299 11.2648 6.31373 10.9659 6.7998C10.0096 8.35563 9.25352 10.029 9.42199 11.9014C9.549 13.3128 10.1417 14.5384 10.7921 15.7715C11.1321 16.4161 11.4855 17.0542 11.8888 17.6621C11.7577 16.9919 11.8881 15.4336 11.9454 14.7002L11.9601 14.6846C12.0535 15.1689 12.1338 17.0731 12.0558 17.5967C13.4147 15.1853 15.0399 12.5792 14.2306 9.68359C13.8886 8.46022 13.2499 7.3565 12.5753 6.29102C12.3845 5.98969 12.1869 5.63789 11.9357 5.38379Z"/>
  </defs>
</svg>
